<?xml version="1.0" standalone="no"?>
<!DOCTYPE svg PUBLIC "-//W3C//DTD SVG 20010904//EN"
 "http://www.w3.org/TR/2001/REC-SVG-20010904/DTD/svg10.dtd">
<svg version="1.0" xmlns="http://www.w3.org/2000/svg"
 width="700.000000pt" height="700.000000pt" viewBox="0 0 700.000000 700.000000"
 preserveAspectRatio="xMidYMid meet">
<metadata>
Created by potrace 1.14, written by Peter Selinger 2001-2017
</metadata>
<g transform="translate(0.000000,700.000000) scale(0.100000,-0.100000)"
fill="#000000" stroke="none">
<path d="M3220 6990 c-646 -60 -1233 -276 -1754 -643 -269 -190 -556 -470
-760 -742 -577 -767 -813 -1736 -655 -2683 116 -699 447 -1352 943 -1860 285
-292 584 -510 951 -692 992 -493 2122 -492 3115 1 352 175 618 365 893 637
583 576 929 1292 1029 2127 19 163 16 616 -5 780 -105 795 -442 1492 -989
2046 -563 569 -1285 919 -2108 1019 -117 14 -544 21 -660 10z m-675 -1234
c378 -112 641 -385 747 -776 17 -61 21 -105 21 -240 1 -148 -2 -175 -26 -265
-81 -302 -284 -550 -562 -686 -250 -122 -530 -141 -795 -53 -662 219 -933
1006 -546 1588 132 199 347 358 573 425 118 35 164 40 333 37 144 -3 176 -7
255 -30z m2455 5 c202 -55 357 -147 500 -297 146 -153 231 -317 274 -526 22
-107 21 -299 -3 -413 -122 -590 -711 -959 -1293 -811 -189 48 -355 145 -495
289 -137 141 -222 292 -269 475 -148 578 217 1164 806 1293 116 26 369 20 480
-10z m-2475 -2475 c452 -117 771 -512 792 -981 13 -299 -92 -570 -307 -786
-180 -181 -398 -285 -650 -308 -312 -29 -619 81 -842 304 -499 495 -382 1334
234 1674 87 47 256 106 348 120 112 17 311 6 425 -23z m2241 -4 c17 -11 25
-30 159 -372 69 -179 132 -330 138 -336 14 -13 601 -58 639 -49 15 4 29 2 32
-4 4 -6 23 -11 42 -11 33 0 35 -2 32 -27 -2 -22 -54 -70 -268 -245 -146 -120
-278 -229 -294 -241 -26 -21 -28 -26 -21 -65 5 -32 13 -46 29 -52 20 -7 31
-43 95 -289 65 -252 71 -285 61 -316 -11 -32 -23 -40 -57 -36 -7 1 -153 92
-325 201 -286 184 -313 199 -332 186 -12 -7 -129 -79 -261 -160 -132 -81 -247
-155 -255 -164 -8 -10 -31 -23 -50 -30 -97 -37 -97 -38 10 374 51 198 95 364
97 370 6 16 -472 414 -496 414 -14 0 -21 7 -21 20 0 11 -11 27 -25 36 -28 18
-32 36 -11 53 9 7 152 20 392 34 l378 22 113 275 c62 151 112 278 113 283 0 4
-7 7 -15 7 -18 0 -18 -1 1 46 15 38 59 84 79 84 6 0 15 -4 21 -8z"/>
<path d="M2043 5596 c-253 -67 -458 -235 -577 -473 -65 -130 -81 -207 -81
-383 0 -197 29 -312 116 -456 90 -149 208 -257 364 -335 279 -138 585 -128
855 28 89 52 246 209 299 300 113 192 152 397 116 606 -59 338 -285 597 -615
703 -73 23 -105 27 -235 31 -134 3 -160 1 -242 -21z"/>
<path d="M4526 5599 c-447 -110 -741 -557 -662 -1007 31 -179 103 -324 225
-454 123 -132 258 -214 426 -260 115 -31 326 -32 440 -1 199 54 368 166 487
322 58 76 130 220 153 306 25 91 31 312 12 407 -72 346 -344 621 -687 694 -96
20 -297 17 -394 -7z"/>
<path d="M2113 3135 c-310 -56 -563 -262 -673 -547 -83 -214 -81 -461 5 -661
54 -128 95 -187 195 -287 100 -100 159 -140 287 -195 118 -51 221 -68 372 -62
215 8 369 67 537 205 88 72 155 159 214 277 137 274 130 574 -21 842 -55 98
-215 261 -309 316 -187 108 -406 149 -607 112z"/>
</g>
</svg>
